<svg width="24" height="24" viewBox="0 0 24 24" fill="none" xmlns="http://www.w3.org/2000/svg">
<path d="M16.4158 7.0376L16.9763 6.47752L17.5363 7.038L16.9759 7.59802L16.4158 7.0376ZM15.2947 5.91665L15.8552 5.35643L16.4154 5.9167L15.8552 6.47693L15.2947 5.91665ZM14.1742 4.7966L14.7347 4.23633L15.2949 4.7966L14.7347 5.35683L14.1742 4.7966ZM18.657 9.27879L19.2174 8.71852L19.7777 9.27879L19.2174 9.83902L18.657 9.27879ZM17.5363 8.1581L18.0966 7.59762L18.657 8.1579L18.0968 8.71832L17.5363 8.1581ZM12.8464 14.4973C12.7734 14.4972 12.7018 14.477 12.6396 14.4388C12.5773 14.4006 12.5269 14.346 12.4937 14.281L11.7781 12.8777L10.2227 13.1235C10.1396 13.1373 10.0543 13.1242 9.97916 13.0862C9.90401 13.0483 9.84291 12.9873 9.80474 12.9122C9.76658 12.8372 9.75332 12.7519 9.76691 12.6688C9.78049 12.5857 9.8202 12.5091 9.88028 12.4501L10.994 11.3364L10.2809 9.93307C10.2429 9.85851 10.2295 9.77382 10.2426 9.69116C10.2557 9.6085 10.2947 9.53212 10.3539 9.47298C10.413 9.41378 10.4893 9.37484 10.5719 9.36175C10.6546 9.34865 10.7392 9.36207 10.8137 9.40008L12.2177 10.1133L13.3312 8.99923C13.3901 8.93911 13.4668 8.89936 13.5499 8.88576C13.633 8.87216 13.7183 8.88542 13.7933 8.9236C13.8684 8.96172 13.9294 9.02278 13.9674 9.09792C14.0055 9.17306 14.0186 9.25836 14.0048 9.34144L13.7529 10.9009L15.1566 11.6165C15.231 11.6546 15.2915 11.7153 15.3293 11.7899C15.3672 11.8645 15.3804 11.9491 15.3672 12.0317C15.354 12.1143 15.315 12.1906 15.2558 12.2496C15.1966 12.3087 15.1203 12.3475 15.0376 12.3605L13.4819 12.607L13.2377 14.1628C13.2246 14.2454 13.1857 14.3217 13.1266 14.3809C13.0674 14.44 12.9911 14.4789 12.9085 14.492C12.888 14.4955 12.8671 14.4973 12.8464 14.4973ZM12.0008 12.0435C12.0739 12.0435 12.1455 12.0638 12.2078 12.102C12.2701 12.1402 12.3207 12.1948 12.3538 12.2599L12.6457 12.8331L12.7465 12.1992C12.7597 12.1166 12.7987 12.0402 12.8579 11.981C12.9171 11.9219 12.9935 11.883 13.0762 11.8699L13.7099 11.7689L13.1367 11.477C13.0622 11.4391 13.0016 11.3785 12.9636 11.304C12.9255 11.2295 12.9121 11.1449 12.9251 11.0622L13.0257 10.4263L12.5723 10.8812C12.513 10.9403 12.4366 10.9791 12.354 10.9921C12.2713 11.0051 12.1867 10.9916 12.1122 10.9535L11.5384 10.6616L11.8309 11.235C11.8688 11.3096 11.8822 11.3942 11.8691 11.4768C11.856 11.5594 11.8171 11.6357 11.758 11.6949L11.3028 12.1504L11.9387 12.0499C11.9592 12.046 11.9799 12.0439 12.0008 12.0435Z" fill="black"/>
<path d="M23.6506 5.96503L21.6894 4.0037L21.4093 4.28381C21.2621 4.4333 21.0781 4.54121 20.8758 4.59659C20.6735 4.65197 20.4602 4.65285 20.2574 4.59914C20.0547 4.54536 19.8698 4.43891 19.7215 4.29058C19.5733 4.14225 19.4669 3.95733 19.4132 3.75459C19.3595 3.55186 19.3604 3.33852 19.4158 3.13625C19.4712 2.93397 19.5792 2.74996 19.7287 2.60289L20.0088 2.32278L18.0476 0.361893C17.5835 -0.102402 16.8307 -0.102402 16.3664 0.361893L14.966 1.7625L14.1256 0.922118C13.6613 0.457823 12.9088 0.457823 12.4445 0.922118L0.350174 13.0165C-0.114121 13.4808 -0.114121 14.2335 0.350174 14.6976L2.31145 16.6589L2.59137 16.3788C3.06185 15.9296 3.80225 15.9296 4.27249 16.3788C4.73678 16.8429 4.73678 17.5956 4.27249 18.0597L3.99238 18.3398L5.95366 20.3015C6.4177 20.7654 7.17008 20.7654 7.63418 20.3015L9.03484 18.9004L9.87557 19.7408C10.3397 20.2049 11.0921 20.2049 11.5563 19.7408L23.6506 7.64575C24.1149 7.18146 24.1149 6.42873 23.6506 5.96463V5.96503ZM7.07356 19.7404C7.03681 19.7773 6.99314 19.8066 6.94505 19.8266C6.89697 19.8465 6.84541 19.8568 6.79335 19.8568C6.74128 19.8568 6.68973 19.8465 6.64165 19.8266C6.59356 19.8066 6.54989 19.7773 6.51314 19.7404L5.08484 18.3114C5.6056 17.5258 5.50095 16.4821 4.8345 15.8156C4.16789 15.1492 3.12416 15.0447 2.33874 15.5657L0.910052 14.1374C0.873257 14.1006 0.844068 14.0569 0.824153 14.0089C0.804239 13.9608 0.793989 13.9093 0.793989 13.8573C0.793989 13.8052 0.804239 13.7537 0.824153 13.7056C0.844068 13.6576 0.873257 13.6139 0.910052 13.5771L13.0047 1.48244C13.079 1.40796 13.1798 1.36616 13.285 1.36616C13.3902 1.36616 13.491 1.40796 13.5653 1.48244L14.4057 2.32283L4.27214 12.4568C3.80819 12.9209 3.80819 13.6733 4.27214 14.1374L6.23298 16.0986L6.51314 15.8185C6.97719 15.3542 7.72996 15.3542 8.19406 15.8185C8.65835 16.2826 8.65835 17.0353 8.19406 17.4995L7.91355 17.7796L8.47417 18.3398L7.07356 19.7404ZM23.0904 7.08587L10.9957 19.1802C10.8409 19.3349 10.59 19.3349 10.4355 19.1802L9.00676 17.7515C9.52603 16.9659 9.42039 15.9234 8.75433 15.2579C8.08803 14.5937 7.04707 14.4887 6.26145 15.0062L4.83237 13.5771C4.6776 13.4226 4.6776 13.1716 4.83237 13.0169L16.9267 0.922167C17.001 0.847822 17.1018 0.806018 17.207 0.805932C17.3122 0.805932 17.413 0.84788 17.4873 0.922167L18.916 2.34853C18.3958 3.13399 18.5006 4.17689 19.1667 4.84314C19.8328 5.50925 20.8759 5.61424 21.6613 5.09423L23.0908 6.52372C23.2453 6.67824 23.2453 6.92918 23.0908 7.08394L23.0904 7.08587Z" fill="black"/>
</svg>
