<svg xmlns="http://www.w3.org/2000/svg" version="1.1" xmlns:xlink="http://www.w3.org/1999/xlink" width="24" height="23.97" x="0" y="0" viewBox="0 0 484.542 484" style="enable-background:new 0 0 512 512" xml:space="preserve" class=""><g><path d="m331.41 142.094 11.317-11.309 11.308 11.317-11.316 11.308zM308.773 119.46l11.317-11.312 11.312 11.313-11.312 11.312zM286.148 96.844l11.317-11.313 11.312 11.313-11.312 11.312zM376.664 187.348l11.316-11.313 11.313 11.313-11.313 11.312zM354.035 164.719l11.313-11.317 11.316 11.313-11.312 11.316zM259.336 292.719a8.002 8.002 0 0 1-7.121-4.367l-14.45-28.336-31.406 4.964a7.999 7.999 0 0 1-6.914-13.598l22.489-22.487-14.399-28.336a7.995 7.995 0 0 1 1.473-9.29 7.99 7.99 0 0 1 9.285-1.472l28.348 14.402 22.484-22.496a7.995 7.995 0 0 1 9.332-1.527 7.997 7.997 0 0 1 4.27 8.437l-5.086 31.489 28.343 14.449a8 8 0 0 1-2.402 15.023l-31.414 4.977-4.93 31.414a8.001 8.001 0 0 1-6.648 6.648c-.414.07-.836.106-1.254.106zm-17.074-49.547a8.008 8.008 0 0 1 7.129 4.371l5.894 11.574 2.035-12.8a8.005 8.005 0 0 1 6.657-6.649l12.796-2.04-11.574-5.894a8 8 0 0 1-4.273-8.375l2.031-12.84-9.156 9.184a8 8 0 0 1-9.29 1.461l-11.585-5.894 5.906 11.578a8.002 8.002 0 0 1-1.473 9.285l-9.191 9.199 12.84-2.031a7.5 7.5 0 0 1 1.254-.13zm0 0" fill="#99A1AF" opacity="1" data-original="#000000" class=""></path><path d="M477.512 120.438 437.91 80.835l-5.656 5.656a24.006 24.006 0 0 1-23.258 6.367 24 24 0 0 1-10.676-40.308l5.657-5.656L364.375 7.3c-9.371-9.375-24.57-9.375-33.945 0l-28.278 28.281-16.968-16.969c-9.375-9.375-24.57-9.375-33.946 0L7.031 262.82c-9.375 9.375-9.375 24.575 0 33.946l39.602 39.601 5.652-5.656c9.5-9.07 24.45-9.07 33.945 0 9.375 9.371 9.375 24.57 0 33.941l-5.656 5.657 39.602 39.609c9.37 9.367 24.562 9.367 33.933 0l28.282-28.29 16.976 16.97c9.371 9.37 24.563 9.37 33.938 0l244.207-244.223c9.375-9.375 9.375-24.574 0-33.945zM142.789 398.59a7.988 7.988 0 0 1-11.316 0l-28.84-28.856c10.515-15.863 8.402-36.937-5.055-50.394-13.46-13.457-34.535-15.567-50.394-5.047l-28.848-28.84a7.997 7.997 0 0 1 0-11.312L262.55 29.926c1.5-1.504 3.535-2.348 5.66-2.348s4.16.844 5.66 2.348l16.969 16.969L86.223 251.52c-9.368 9.37-9.368 24.562 0 33.933l39.593 39.602 5.657-5.657c9.37-9.375 24.57-9.375 33.941 0 9.375 9.372 9.375 24.57 0 33.942l-5.664 5.656 11.32 11.313zM466.2 143.07 221.984 387.277c-3.125 3.125-8.191 3.125-11.312 0l-28.848-28.847c10.485-15.864 8.352-36.914-5.097-50.352-13.454-13.41-34.473-15.531-50.336-5.082l-28.856-28.855c-3.125-3.121-3.125-8.188 0-11.313L341.742 18.613a8.014 8.014 0 0 1 5.66-2.347c2.125 0 4.16.847 5.66 2.347l28.848 28.801c-10.504 15.86-8.387 36.918 5.063 50.371 13.449 13.45 34.511 15.57 50.37 5.07l28.864 28.864c3.121 3.12 3.121 8.187 0 11.312zm0 0" fill="#99A1AF" opacity="1" data-original="#000000" class=""></path></g></svg>