<svg xmlns="http://www.w3.org/2000/svg" version="1.1" xmlns:xlink="http://www.w3.org/1999/xlink" width="24" height="24" x="0" y="0" viewBox="0 0 32 32" style="enable-background:new 0 0 512 512" xml:space="preserve" fill-rule="evenodd" class=""><g><path d="M15 4c0-1.656-1.344-3-3-3H4C2.344 1 1 2.344 1 4v8c0 1.656 1.344 3 3 3h8c1.656 0 3-1.344 3-3zm-2 0v8c0 .552-.448 1-1 1H4c-.552 0-1-.448-1-1V4c0-.552.448-1 1-1h8c.552 0 1 .448 1 1zM15 20c0-1.656-1.344-3-3-3H4c-1.656 0-3 1.344-3 3v8c0 1.656 1.344 3 3 3h8c1.656 0 3-1.344 3-3zm-2 0v8c0 .552-.448 1-1 1H4c-.552 0-1-.448-1-1v-8c0-.552.448-1 1-1h8c.552 0 1 .448 1 1zM31 4c0-1.656-1.344-3-3-3h-8c-1.656 0-3 1.344-3 3v8c0 1.656 1.344 3 3 3h8c1.656 0 3-1.344 3-3zm-2 0v8c0 .552-.448 1-1 1h-8c-.552 0-1-.448-1-1V4c0-.552.448-1 1-1h8c.552 0 1 .448 1 1zM31 20c0-1.656-1.344-3-3-3h-8c-1.656 0-3 1.344-3 3v8c0 1.656 1.344 3 3 3h8c1.656 0 3-1.344 3-3zm-2 0v8c0 .552-.448 1-1 1h-8c-.552 0-1-.448-1-1v-8c0-.552.448-1 1-1h8c.552 0 1 .448 1 1z" fill="#99A1AF" opacity="1" data-original="#000000"></path></g></svg>