<svg xmlns="http://www.w3.org/2000/svg" version="1.1" xmlns:xlink="http://www.w3.org/1999/xlink" width="24" height="24" x="0" y="0" viewBox="0 0 24 24" style="enable-background:new 0 0 512 512" xml:space="preserve"><g><path d="M2 22.75a.75.75 0 0 1-.712-.987l1.445-4.332A10.712 10.712 0 0 1 1.25 12C1.25 6.072 6.072 1.25 12 1.25S22.75 6.072 22.75 12 17.928 22.75 12 22.75c-1.909 0-3.78-.512-5.43-1.482L2.238 22.71A.754.754 0 0 1 2 22.75zm4.662-3.054c.14 0 .28.04.402.116A9.214 9.214 0 0 0 12 21.25c5.1 0 9.25-4.15 9.25-9.25S17.1 2.75 12 2.75 2.75 6.9 2.75 12c0 1.744.497 3.451 1.438 4.937.12.19.15.424.078.638l-1.08 3.239 3.239-1.08a.746.746 0 0 1 .237-.038zm5.34-3.01a1 1 0 1 0 0 2 1 1 0 0 0 0-2zm3.69-7.673c-.265-1.51-1.506-2.751-3.017-3.017a3.77 3.77 0 0 0-3.084.818 3.744 3.744 0 0 0-1.34 2.873.75.75 0 0 0 1.5 0c0-.667.293-1.295.805-1.724a2.251 2.251 0 1 1 2.53 3.696c-1.15.633-1.835 1.732-1.835 2.94v.088c0 .414.336.706.75.706s.75-.38.75-.793c0-.654.396-1.262 1.059-1.628a3.772 3.772 0 0 0 1.882-3.959z" fill="#99A1AF" opacity="1" data-original="#000000"></path></g></svg>